<svg width="131" height="115" viewBox="0 0 131 115" fill="none" xmlns="http://www.w3.org/2000/svg">
<path d="M101.385 126.036V87.7373L83.3538 87.7666L83.3577 122.554C83.3577 129.284 84.7865 131.328 86.3627 134.741L98.3814 159.108L113.405 150.407L101.386 126.036H101.385Z" fill="#009999"/>
<path d="M119.412 87.7358H98.3801V176.522L116.407 176.519C116.407 176.519 116.407 143.255 116.407 120.812C116.407 109.297 117.263 107.712 117.919 104.703C119.851 95.8397 119.269 96.0236 119.412 87.7372V87.7358Z" fill="#009999"/>
<path d="M119.605 79.6305C116.101 77.4759 115.02 72.9283 117.191 69.472C119.362 66.0169 123.962 64.963 127.466 67.1175C130.97 69.2721 132.051 73.8197 129.88 77.2761C127.709 80.7311 123.109 81.7851 119.605 79.6305Z" fill="#CCCCD4"/>
<path d="M109.273 48.0944L123.536 43.728L130.543 70.8432L116.409 75.5507L109.273 48.0944Z" fill="#CCCCD4"/>
<path d="M112.479 52.2128C108.975 50.0582 107.894 45.5106 110.065 42.0542C112.236 38.5992 116.836 37.5453 120.34 39.6998C123.844 41.8544 124.925 46.402 122.754 49.8584C120.583 53.3134 115.983 54.3673 112.479 52.2128Z" fill="#CCCCD4"/>
<path d="M82.5522 46.3666C79.0479 44.212 77.967 39.6644 80.1381 36.2081C82.3092 32.753 86.909 31.6991 90.4133 33.8536C93.9175 36.0082 94.9984 40.5558 92.8273 44.0122C90.6563 47.4672 86.0565 48.5211 82.5522 46.3666Z" fill="#CCCCD4"/>
<path d="M79.1056 38.9539L93.8703 41.175L89.3675 66.8472C83.3588 63.3629 75.843 59.0404 75.843 59.0404L79.1069 38.9539H79.1056Z" fill="#CCCCD4"/>
<path d="M105.893 31.1577C100.195 29.9332 99.1324 29.4642 95.3758 28.5461C93.2632 29.8533 88.844 32.0718 84.8564 32.9272C75.2677 44.7966 83.3545 56.8832 83.3545 63.3922C83.3545 74.55 83.3545 89.4134 83.3545 89.4134C84.8404 93.3534 103.822 100.417 119.414 87.7372C119.41 76.013 122.415 74.2729 122.503 41.7067C119.402 36.778 114.825 38.0624 105.894 31.1577H105.893Z" fill="#CCCCD4"/>
<path d="M105.892 31.1578C101.801 35.271 93.9316 37.1071 90.8655 31.1858V20.6328L105.889 20.7407L105.893 31.1564L105.892 31.1578Z" fill="#E7A06B"/>
<path d="M98.1507 8.4209C94.3025 8.4209 88.8144 11.1178 88.6563 20.0504C88.6338 21.3136 88.3894 25.2363 88.6391 27.756C88.9325 29.6294 88.9963 30.3622 90.1316 31.1364C90.3693 31.3136 91.7596 32.0318 92.1991 32.2116C93.6399 32.8006 96.9662 33.0617 98.3764 32.0544C100.343 30.7566 101.274 28.0664 101.381 26.8339C101.365 26.9765 101.391 26.7286 101.381 26.8339C104.072 26.0344 105.583 24.3156 106.661 21.6827C107.128 20.5408 107.387 19.2856 107.387 17.9665C107.387 12.694 103.252 8.4209 98.152 8.4209H98.1507Z" fill="#E7A06B"/>
<path d="M106.209 23.7295C106.986 22.3731 107.185 20.6995 107.337 18.958C107.337 18.958 105.216 20.0826 101.318 20.0826C96.1687 20.0826 99.0741 26.1452 95.2777 26.3557C91.2555 26.377 88.9676 25.0326 88.5759 22.3531C88.5281 23.5949 88.4285 27.0699 88.4736 28.5796C88.5188 30.0892 88.5971 30.9353 90.0405 32.1279C91.4839 33.3204 96.1235 35.3204 98.3769 33.8001C101.225 32.1492 101.391 26.6648 101.382 26.8367C101.574 25.8734 102.265 25.7348 104.242 25.7255L105.889 25.7028V24.9993C105.889 24.5569 105.988 24.1159 106.209 23.7321V23.7295Z" fill="white"/>
<path d="M104.532 26.062C103.677 27.8382 102.081 28.8801 100.968 28.3898C99.8557 27.8994 99.6472 26.062 100.502 24.2859C101.357 22.5097 102.954 21.4677 104.066 21.9581C105.179 22.4484 105.388 24.2859 104.532 26.062Z" fill="#E7A06B"/>
<path fill-rule="evenodd" clip-rule="evenodd" d="M85.853 15.5095L91.3685 18.7056V20.6326C91.3685 21.8427 90.0626 22.5996 89.0184 21.9942L85.853 20.1599V15.5095ZM86.8617 17.2627V19.5757L89.5229 21.1178C89.8942 21.3331 90.3598 21.0641 90.3598 20.6326V19.2898L86.8617 17.2627Z" fill="#000028"/>
<path fill-rule="evenodd" clip-rule="evenodd" d="M91.8618 18.9927L97.3773 22.1887V26.8391L93.7393 24.7312C93.7393 24.7312 93.7393 24.7313 93.7393 24.7312C92.5782 24.0586 91.8618 22.815 91.8618 21.4682V18.9927ZM92.8704 20.7459V21.4682C92.8704 22.4532 93.3944 23.3628 94.2436 23.8547L96.3686 25.086V22.773L92.8704 20.7459Z" fill="#000028"/>
<path fill-rule="evenodd" clip-rule="evenodd" d="M89.3774 17.5483L93.8803 20.1626L93.3752 21.0386L88.8723 18.4244L89.3774 17.5483Z" fill="#000028"/>
<path d="M62.3245 75.5509L68.3332 72.0666L65.3282 70.3237L62.3232 72.0692C60.9873 72.8434 60.9873 74.7768 62.3232 75.5496L62.3245 75.5509Z" fill="#E7A06B"/>
<path d="M57.8176 69.4588L75.8423 59.0391L104.386 75.5773L86.3617 85.9957L57.8176 69.4588Z" fill="#333353"/>
<path d="M57.8178 69.4585C57.8178 69.4585 47.301 49.4359 47.301 49.4373C47.301 49.4386 77.3469 66.8456 77.3469 66.8456L86.3606 85.9941L57.8165 69.4572L57.8178 69.4585Z" fill="#333353"/>
<path d="M108.491 79.0843C110.567 79.0843 112.25 77.3955 112.25 75.3122C112.25 73.2289 110.567 71.54 108.491 71.54C106.415 71.54 104.732 73.2289 104.732 75.3122C104.732 77.3955 106.415 79.0843 108.491 79.0843Z" fill="#E7A06B"/>
<path d="M92.0714 71.3041L98.428 71.5146C99.2074 71.5492 99.9683 71.2668 100.538 70.7325L101.499 69.8304L98.2328 67.9423C97.031 67.2481 96.6181 65.7078 97.3099 64.502L110.399 72.0689L107.828 79.0256L99.145 77.873C97.857 77.7478 96.4162 77.4919 95.3738 76.6245C94.3288 75.7558 92.2467 73.849 92.2467 73.849L89.4475 73.7105C89.5112 72.3194 90.6864 71.2414 92.0727 71.3041H92.0714Z" fill="#E7A06B"/>
<path d="M66.8682 74.6804L63.8154 76.4219L69.6594 79.8077C70.6912 80.4059 71.9633 80.4073 72.9964 79.8103L74.3442 79.0322L66.8696 74.6804H66.8682Z" fill="#E7A06B"/>
<path d="M63.8271 69.5256C65.4857 69.5256 66.8321 70.8767 66.8321 72.5409V76.4223H63.8271V69.527V69.5256Z" fill="#E7A06B"/>
<path d="M70.9793 77.913H66.3955V71.0176L68.459 72.0502C70.0034 72.823 70.9793 74.406 70.9793 76.1382V77.9143V77.913Z" fill="#E7A06B"/>
<path d="M29.54 100.911C29.54 101.649 34.3668 120.727 36.918 130.755C37.9092 134.651 37.8061 138.746 36.6212 142.587L29.54 159.858V100.91V100.911Z" fill="#000028"/>
<path d="M10.6604 76.9324C7.67942 80.9401 4.57916 86.4066 4.6984 90.9201C4.91453 99.1241 8.80475 105.04 10.1636 114.399C12.5968 131.157 1.22055 150.317 7.18258 169.351H30.037V76.9324H10.6604Z" fill="#333353"/>
<path d="M11.6541 32.9708L13.6414 24.9778H25.5655L21.5908 36.9673L11.6541 32.9708Z" fill="#E7A06B"/>
<path d="M21.5407 29.4102C27.0286 29.4102 31.4774 24.937 31.4774 19.419C31.4774 13.901 27.0286 9.42773 21.5407 9.42773C16.0528 9.42773 11.604 13.901 11.604 19.419C11.604 24.937 16.0528 29.4102 21.5407 29.4102Z" fill="#E7A06B"/>
<path d="M31.3433 21.0549C31.0725 24.4557 30.239 28.06 29.0802 32.8683C28.8094 33.9898 27.7027 34.6942 26.5786 34.4594C24.1131 33.9424 22.3729 33.2667 20.4054 32.3962L19.7446 21.1449L31.3433 21.0549Z" fill="#E7A06B"/>
<path d="M30.1572 28.1999C31.1447 28.3648 32.7731 27.8177 31.9943 26.2279C31.0689 24.3408 31.2763 21.6507 31.3447 21.0549C30.7547 24.628 29.6753 28.1187 29.6753 28.1187L30.1585 28.1999H30.1572Z" fill="#E7A06B"/>
<path d="M29.5629 30.854C29.6983 30.2807 29.8287 29.7237 29.9516 29.183C28.9679 29.0993 27.9531 29.3528 27.9531 29.3528C27.9531 29.3528 28.6797 30.4768 29.5629 30.8552V30.854Z" fill="#D3834F"/>
<path d="M25.0873 19.2519L31.4506 20.3135C32.2666 14.2026 29.0906 10.5046 22.8093 9.50297C17.4808 8.65372 10.7946 11.5737 10.2369 18.545C9.92641 22.4216 13.4552 24.9869 12.8677 28.0929C18.749 29.0745 24.3794 22.6777 25.0054 19.744L25.0861 19.2507L25.0873 19.2519Z" fill="#321E14"/>
<path d="M18.6083 11.9895C21.901 11.9895 24.5703 9.30553 24.5703 5.99473C24.5703 2.68393 21.901 0 18.6083 0C15.3155 0 12.6462 2.68393 12.6462 5.99473C12.6462 9.30553 15.3155 11.9895 18.6083 11.9895Z" fill="#321E14"/>
<path d="M21.8274 26.869C23.0729 26.7108 23.9083 25.1957 23.6933 23.4849C23.4784 21.7742 22.2945 20.5156 21.049 20.6738C19.8036 20.832 18.9682 22.3471 19.1831 24.0578C19.3981 25.7686 20.582 27.0272 21.8274 26.869Z" fill="#E7A06B"/>
<path d="M31.5276 54.9518C31.5276 58.2626 28.8583 60.9465 25.5655 60.9465C22.2728 60.9465 19.6035 58.2626 19.6035 54.9518C19.6035 51.6409 22.2728 48.957 25.5655 48.957C28.8583 48.957 31.5276 51.6409 31.5276 54.9518Z" fill="#00E6DC"/>
<path d="M29.5402 76.9323H9.66682L5.69214 60.9464V54.9516C5.69214 50.292 6.43863 48.7009 7.9043 44.281L11.6542 32.9709L21.5909 36.9674C21.5909 43.0908 27.2511 48.6247 29.5402 50.4831V76.9323Z" fill="#00E6DC"/>
<path d="M31.5276 54.9517H5.69214V78.9306H31.5276V54.9517Z" fill="#00E6DC"/>
<path d="M15.6292 82.927C18.3732 82.927 20.5976 80.6904 20.5976 77.9314C20.5976 75.1724 18.3732 72.9358 15.6292 72.9358C12.8853 72.9358 10.6609 75.1724 10.6609 77.9314C10.6609 80.6904 12.8853 82.927 15.6292 82.927Z" fill="#E7A06B"/>
<path d="M10.0916 60.7715L10.6604 77.9327H20.5971L21.166 60.7715H10.0916Z" fill="#E7A06B"/>
<path d="M21.5908 47.9575H9.66675V65.9417H21.5908V47.9575Z" fill="#00E6DC"/>
<path d="M15.6288 53.9524C18.9215 53.9524 21.5908 51.2684 21.5908 47.9576C21.5908 44.6468 18.9215 41.9629 15.6288 41.9629C12.336 41.9629 9.66675 44.6468 9.66675 47.9576C9.66675 51.2684 12.336 53.9524 15.6288 53.9524Z" fill="#00E6DC"/>
<path d="M34.3617 61.4397L38.0607 66.1081L18.4158 82.0678L12.8425 73.7963L34.3617 61.4397Z" fill="#E7A06B"/>
<path d="M35.9998 66.941C37.6462 66.941 38.9808 65.5991 38.9808 63.9437C38.9808 62.2883 37.6462 60.9463 35.9998 60.9463C34.3534 60.9463 33.0188 62.2883 33.0188 63.9437C33.0188 65.5991 34.3534 66.941 35.9998 66.941Z" fill="#E7A06B"/>
<path d="M44.4917 53.1417L39.1371 57.2793C38.2465 57.9413 37.2131 58.0786 36.2989 57.5703C35.5015 57.127 35.0071 56.284 35.0071 55.3685V54.4531C35.0071 53.349 34.1178 52.4548 33.0198 52.4548V63.9447L38.0627 66.1078L42.9565 62.9456C44.6159 61.8166 44.9587 61.0623 44.9674 59.4749L44.9438 55.4522L47.3026 53.364C46.5884 52.521 45.3301 52.4211 44.4929 53.1417H44.4917Z" fill="#E7A06B"/>
</svg>
